<?xml version="1.0" encoding="iso-8859-1"?>
<!-- Uploaded to: SVG Repo, www.svgrepo.com, Generator: SVG Repo Mixer Tools -->
<!DOCTYPE svg PUBLIC "-//W3C//DTD SVG 1.1//EN" "http://www.w3.org/Graphics/SVG/1.1/DTD/svg11.dtd">
<svg fill="#000000" version="1.1" id="Capa_1" xmlns="http://www.w3.org/2000/svg" xmlns:xlink="http://www.w3.org/1999/xlink" 
	 width="800px" height="800px" viewBox="0 0 62.141 62.141"
	 xml:space="preserve">
<g>
	<g>
		<path d="M61.537,35.221L47.721,21.406v-9.113c0-1.135-0.92-2.056-2.057-2.056c-1.135,0-2.055,0.921-2.055,2.056v5.002
			l-9.748-9.748c-0.805-0.803-2.104-0.803-2.908,0L18.2,20.301c-0.803,0.803-0.803,2.104,0,2.906c0.804,0.803,2.105,0.803,2.907,0
			l11.302-11.3l26.224,26.225c0.399,0.399,0.928,0.604,1.452,0.604c0.525,0,1.054-0.201,1.453-0.604
			C62.342,37.328,62.342,36.026,61.537,35.221z"/>
		<path d="M55.657,37.583L33.862,15.787c-0.388-0.386-0.908-0.603-1.453-0.603s-1.066,0.217-1.454,0.603l-8.375,8.375
			c5.544,2.764,9.514,8.215,10.198,14.65c1.694,0.337,2.961,1.833,2.961,3.604v7.812c0,1.252,0.469,2.448,1.323,3.37
			c0.938,1.018,2.269,1.599,3.646,1.599h10.64c2.737,0,4.97-2.229,4.97-4.969V39.591c0-0.312-0.03-0.629-0.093-0.94
			C56.143,38.243,55.948,37.873,55.657,37.583z"/>
		<path d="M15.564,24.067C6.967,24.067,0,31.036,0,39.631c0,8.594,6.968,15.562,15.564,15.562c8.596,0,15.564-6.972,15.564-15.562
			C31.129,31.036,24.161,24.067,15.564,24.067z M20.663,42.201H10.467c-1.42,0-2.569-1.149-2.569-2.569
			c0-1.418,1.149-2.567,2.569-2.567h10.196c1.418,0,2.569,1.149,2.569,2.567C23.231,41.051,22.081,42.201,20.663,42.201z"/>
	</g>
</g>
</svg>